<svg width="460" height="40" viewBox="0 0 460 40" fill="none" xmlns="http://www.w3.org/2000/svg">
<path d="M23.0007 36.6663C33.586 36.6663 42.1673 29.2043 42.1673 19.9997C42.1673 10.7949 33.586 3.33301 23.0007 3.33301C12.4152 3.33301 3.83398 10.7949 3.83398 19.9997C3.83398 29.2043 12.4152 36.6663 23.0007 36.6663Z" fill="#F5F5F5"/>
<path d="M18.209 14.9426C18.209 14.1472 18.209 13.7494 18.4002 13.5274C18.5667 13.3339 18.8218 13.2128 19.099 13.1956C19.4173 13.1758 19.8019 13.3909 20.5715 13.8211L29.6193 18.8789C30.2871 19.2521 30.6209 19.4387 30.7361 19.6761C30.8369 19.8834 30.8369 20.1174 30.7361 20.3247C30.6209 20.5621 30.2871 20.7487 29.6193 21.1219L20.5715 26.1797C19.8019 26.6099 19.4173 26.8251 19.099 26.8052C18.8218 26.7881 18.5667 26.6669 18.4002 26.4734C18.209 26.2514 18.209 25.8537 18.209 25.0582V14.9426Z" fill="#C00000"/>
<path d="M63.4927 24.9666C62.908 24.9666 62.4061 24.8187 61.987 24.5227C61.5704 24.2244 61.2496 23.7947 61.0247 23.2337C60.8021 22.6702 60.6909 21.992 60.6909 21.1989C60.6932 20.4058 60.8057 19.7311 61.0282 19.1747C61.2531 18.616 61.5739 18.1899 61.9906 17.8963C62.4096 17.6027 62.9103 17.456 63.4927 17.456C64.0751 17.456 64.5758 17.6027 64.9949 17.8963C65.4139 18.1899 65.7347 18.616 65.9572 19.1747C66.1821 19.7334 66.2946 20.4081 66.2946 21.1989C66.2946 21.9943 66.1821 22.6738 65.9572 23.2372C65.7347 23.7983 65.4139 24.2268 64.9949 24.5227C64.5782 24.8187 64.0775 24.9666 63.4927 24.9666ZM63.4927 23.8551C63.9473 23.8551 64.3059 23.6314 64.5687 23.1839C64.8339 22.7341 64.9664 22.0724 64.9664 21.1989C64.9664 20.6212 64.9061 20.1359 64.7853 19.7429C64.6646 19.3499 64.4941 19.054 64.274 18.8551C64.0538 18.6539 63.7934 18.5533 63.4927 18.5533C63.0405 18.5533 62.6831 18.7782 62.4203 19.228C62.1575 19.6754 62.0249 20.3324 62.0225 21.1989C62.0202 21.7789 62.0782 22.2666 62.1966 22.6619C62.3173 23.0573 62.4877 23.3556 62.7079 23.5568C62.9281 23.7557 63.1897 23.8551 63.4927 23.8551ZM68.2805 23.9545C68.0651 23.9545 67.8804 23.8788 67.7266 23.7273C67.5727 23.5734 67.4969 23.3887 67.4993 23.1733C67.4969 22.9602 67.5727 22.7779 67.7266 22.6264C67.8804 22.4749 68.0651 22.3991 68.2805 22.3991C68.4889 22.3991 68.67 22.4749 68.8239 22.6264C68.9801 22.7779 69.0594 22.9602 69.0618 23.1733C69.0594 23.3177 69.0215 23.4491 68.9482 23.5675C68.8771 23.6858 68.7824 23.7805 68.6641 23.8516C68.5481 23.9202 68.4202 23.9545 68.2805 23.9545ZM68.2805 20.3501C68.0651 20.3501 67.8804 20.2744 67.7266 20.1229C67.5727 19.969 67.4969 19.7843 67.4993 19.5689C67.4969 19.3558 67.5727 19.1735 67.7266 19.022C67.8804 18.8681 68.0651 18.7912 68.2805 18.7912C68.4889 18.7912 68.67 18.8681 68.8239 19.022C68.9801 19.1735 69.0594 19.3558 69.0618 19.5689C69.0594 19.7109 69.0215 19.8411 68.9482 19.9595C68.8771 20.0779 68.7824 20.1726 68.6641 20.2436C68.5481 20.3146 68.4202 20.3501 68.2805 20.3501ZM73.063 24.9666C72.4783 24.9666 71.9764 24.8187 71.5574 24.5227C71.1407 24.2244 70.8199 23.7947 70.595 23.2337C70.3725 22.6702 70.2612 21.992 70.2612 21.1989C70.2636 20.4058 70.376 19.7311 70.5985 19.1747C70.8234 18.616 71.1442 18.1899 71.5609 17.8963C71.9799 17.6027 72.4806 17.456 73.063 17.456C73.6454 17.456 74.1461 17.6027 74.5652 17.8963C74.9842 18.1899 75.305 18.616 75.5275 19.1747C75.7524 19.7334 75.8649 20.4081 75.8649 21.1989C75.8649 21.9943 75.7524 22.6738 75.5275 23.2372C75.305 23.7983 74.9842 24.2268 74.5652 24.5227C74.1485 24.8187 73.6478 24.9666 73.063 24.9666ZM73.063 23.8551C73.5176 23.8551 73.8762 23.6314 74.139 23.1839C74.4042 22.7341 74.5368 22.0724 74.5368 21.1989C74.5368 20.6212 74.4764 20.1359 74.3556 19.7429C74.2349 19.3499 74.0645 19.054 73.8443 18.8551C73.6241 18.6539 73.3637 18.5533 73.063 18.5533C72.6109 18.5533 72.2534 18.7782 71.9906 19.228C71.7278 19.6754 71.5952 20.3324 71.5929 21.1989C71.5905 21.7789 71.6485 22.2666 71.7669 22.6619C71.8876 23.0573 72.0581 23.3556 72.2782 23.5568C72.4984 23.7557 72.76 23.8551 73.063 23.8551ZM79.733 24.9666C79.1482 24.9666 78.6463 24.8187 78.2273 24.5227C77.8106 24.2244 77.4898 23.7947 77.2649 23.2337C77.0424 22.6702 76.9311 21.992 76.9311 21.1989C76.9335 20.4058 77.0459 19.7311 77.2685 19.1747C77.4934 18.616 77.8142 18.1899 78.2308 17.8963C78.6499 17.6027 79.1506 17.456 79.733 17.456C80.3153 17.456 80.8161 17.6027 81.2351 17.8963C81.6541 18.1899 81.9749 18.616 82.1974 19.1747C82.4223 19.7334 82.5348 20.4081 82.5348 21.1989C82.5348 21.9943 82.4223 22.6738 82.1974 23.2372C81.9749 23.7983 81.6541 24.2268 81.2351 24.5227C80.8184 24.8187 80.3177 24.9666 79.733 24.9666ZM79.733 23.8551C80.1875 23.8551 80.5462 23.6314 80.8089 23.1839C81.0741 22.7341 81.2067 22.0724 81.2067 21.1989C81.2067 20.6212 81.1463 20.1359 81.0256 19.7429C80.9048 19.3499 80.7344 19.054 80.5142 18.8551C80.294 18.6539 80.0336 18.5533 79.733 18.5533C79.2808 18.5533 78.9233 18.7782 78.6605 19.228C78.3977 19.6754 78.2652 20.3324 78.2628 21.1989C78.2604 21.7789 78.3184 22.2666 78.4368 22.6619C78.5575 23.0573 78.728 23.3556 78.9482 23.5568C79.1683 23.7557 79.4299 23.8551 79.733 23.8551ZM86.6976 17.2145L84.3539 25.9219H83.2282L85.5719 17.2145H86.6976ZM90.4618 17.5554V24.8281H89.1444V18.8374H89.1017L87.4007 19.924V18.7166L89.2083 17.5554H90.4618ZM94.9966 24.9666C94.4119 24.9666 93.91 24.8187 93.4909 24.5227C93.0743 24.2244 92.7535 23.7947 92.5286 23.2337C92.306 22.6702 92.1948 21.992 92.1948 21.1989C92.1971 20.4058 92.3096 19.7311 92.5321 19.1747C92.757 18.616 93.0778 18.1899 93.4945 17.8963C93.9135 17.6027 94.4142 17.456 94.9966 17.456C95.579 17.456 96.0797 17.6027 96.4988 17.8963C96.9178 18.1899 97.2386 18.616 97.4611 19.1747C97.686 19.7334 97.7985 20.4081 97.7985 21.1989C97.7985 21.9943 97.686 22.6738 97.4611 23.2372C97.2386 23.7983 96.9178 24.2268 96.4988 24.5227C96.0821 24.8187 95.5814 24.9666 94.9966 24.9666ZM94.9966 23.8551C95.4512 23.8551 95.8098 23.6314 96.0726 23.1839C96.3378 22.7341 96.4703 22.0724 96.4703 21.1989C96.4703 20.6212 96.41 20.1359 96.2892 19.7429C96.1685 19.3499 95.998 19.054 95.7779 18.8551C95.5577 18.6539 95.2973 18.5533 94.9966 18.5533C94.5444 18.5533 94.187 18.7782 93.9242 19.228C93.6614 19.6754 93.5288 20.3324 93.5265 21.1989C93.5241 21.7789 93.5821 22.2666 93.7005 22.6619C93.8212 23.0573 93.9917 23.3556 94.2118 23.5568C94.432 23.7557 94.6936 23.8551 94.9966 23.8551ZM99.7844 23.9545C99.569 23.9545 99.3844 23.8788 99.2305 23.7273C99.0766 23.5734 99.0008 23.3887 99.0032 23.1733C99.0008 22.9602 99.0766 22.7779 99.2305 22.6264C99.3844 22.4749 99.569 22.3991 99.7844 22.3991C99.9928 22.3991 100.174 22.4749 100.328 22.6264C100.484 22.7779 100.563 22.9602 100.566 23.1733C100.563 23.3177 100.525 23.4491 100.452 23.5675C100.381 23.6858 100.286 23.7805 100.168 23.8516C100.052 23.9202 99.9241 23.9545 99.7844 23.9545ZM99.7844 20.3501C99.569 20.3501 99.3844 20.2744 99.2305 20.1229C99.0766 19.969 99.0008 19.7843 99.0032 19.5689C99.0008 19.3558 99.0766 19.1735 99.2305 19.022C99.3844 18.8681 99.569 18.7912 99.7844 18.7912C99.9928 18.7912 100.174 18.8681 100.328 19.022C100.484 19.1735 100.563 19.3558 100.566 19.5689C100.563 19.7109 100.525 19.8411 100.452 19.9595C100.381 20.0779 100.286 20.1726 100.168 20.2436C100.052 20.3146 99.9241 20.3501 99.7844 20.3501ZM104.837 17.5554V24.8281H103.519V18.8374H103.477L101.776 19.924V18.7166L103.583 17.5554H104.837ZM109.294 24.9276C108.782 24.9276 108.328 24.84 107.93 24.6648C107.535 24.4896 107.222 24.2457 106.992 23.9332C106.763 23.6207 106.641 23.2597 106.627 22.8501H107.962C107.974 23.0466 108.039 23.2183 108.157 23.3651C108.276 23.5095 108.433 23.6219 108.629 23.7024C108.826 23.7829 109.046 23.8232 109.29 23.8232C109.55 23.8232 109.781 23.7782 109.982 23.6882C110.184 23.5959 110.341 23.468 110.455 23.3047C110.568 23.1413 110.624 22.9531 110.622 22.7401C110.624 22.5199 110.567 22.3258 110.451 22.1577C110.335 21.9896 110.167 21.8582 109.947 21.7635C109.729 21.6688 109.466 21.6214 109.159 21.6214H108.516V20.6058H109.159C109.412 20.6058 109.633 20.562 109.823 20.4744C110.014 20.3868 110.165 20.2637 110.274 20.1051C110.383 19.9441 110.436 19.7583 110.433 19.5476C110.436 19.3416 110.39 19.1629 110.295 19.0114C110.203 18.8575 110.071 18.7379 109.901 18.6527C109.733 18.5675 109.535 18.5249 109.308 18.5249C109.085 18.5249 108.879 18.5651 108.69 18.6456C108.5 18.7261 108.348 18.8409 108.232 18.9901C108.116 19.1368 108.054 19.312 108.047 19.5156H106.779C106.789 19.1084 106.906 18.7509 107.131 18.4432C107.358 18.133 107.661 17.8916 108.04 17.7188C108.419 17.5436 108.844 17.456 109.315 17.456C109.8 17.456 110.222 17.5471 110.579 17.7294C110.939 17.9093 111.217 18.152 111.414 18.4574C111.61 18.7628 111.708 19.1001 111.708 19.4695C111.711 19.879 111.59 20.2223 111.346 20.4993C111.105 20.7763 110.787 20.9574 110.394 21.0426V21.0994C110.906 21.1705 111.298 21.3598 111.57 21.6676C111.844 21.973 111.981 22.353 111.978 22.8075C111.978 23.2147 111.862 23.5793 111.63 23.9013C111.401 24.2209 111.083 24.4718 110.678 24.6541C110.276 24.8364 109.814 24.9276 109.294 24.9276Z" fill="black"/>
<rect x="136" y="20" width="252" height="2" rx="1" fill="#D9D9D9"/>
<ellipse cx="399.65" cy="18.5669" rx="1.34961" ry="1.04348" fill="#484848"/>
<ellipse cx="399.65" cy="21.3501" rx="1.34961" ry="1.04348" fill="#484848"/>
<ellipse cx="399.65" cy="24.1333" rx="1.34961" ry="1.04348" fill="#484848"/>
<g clip-path="url(#clip0_224_338)">
<path d="M422.294 23.1211L421.705 23.5925C420.891 24.2434 419.572 24.2434 418.759 23.5925C417.945 22.9417 417.945 21.8864 418.759 21.2355L419.348 20.7641M424.651 21.2355L425.24 20.7641C426.054 20.1132 426.054 19.058 425.24 18.4071C424.427 17.7562 423.108 17.7562 422.294 18.4071L421.705 18.8785M420.541 22.1665L423.458 19.8332" stroke="#484848" stroke-linecap="round" stroke-linejoin="round"/>
</g>
<path d="M434.192 19.5547C434.159 19.2446 434.019 19.0031 433.773 18.8303C433.529 18.6574 433.212 18.571 432.821 18.571C432.546 18.571 432.311 18.6125 432.114 18.6953C431.918 18.7782 431.767 18.8906 431.663 19.0327C431.559 19.1747 431.506 19.3369 431.503 19.5192C431.503 19.6707 431.538 19.8021 431.606 19.9134C431.677 20.0246 431.773 20.1193 431.894 20.1974C432.015 20.2732 432.149 20.3371 432.295 20.3892C432.442 20.4413 432.59 20.4851 432.739 20.5206L433.421 20.6911C433.696 20.755 433.96 20.8414 434.213 20.9503C434.469 21.0592 434.697 21.1965 434.898 21.3622C435.102 21.5279 435.263 21.728 435.381 21.9624C435.5 22.1967 435.559 22.4714 435.559 22.7862C435.559 23.2124 435.45 23.5876 435.232 23.9119C435.014 24.2339 434.699 24.486 434.288 24.6683C433.878 24.8482 433.382 24.9382 432.8 24.9382C432.234 24.9382 431.743 24.8506 431.326 24.6754C430.912 24.5002 430.587 24.2446 430.353 23.9084C430.121 23.5722 429.995 23.1626 429.976 22.6797H431.273C431.292 22.933 431.37 23.1437 431.507 23.3118C431.644 23.4799 431.823 23.6054 432.043 23.6882C432.266 23.7711 432.514 23.8125 432.789 23.8125C433.075 23.8125 433.326 23.7699 433.542 23.6847C433.76 23.5971 433.93 23.4763 434.053 23.3224C434.176 23.1662 434.239 22.9839 434.241 22.7756C434.239 22.5862 434.183 22.4299 434.074 22.3068C433.966 22.1813 433.813 22.0772 433.616 21.9943C433.422 21.9091 433.195 21.8333 432.935 21.767L432.107 21.554C431.508 21.4001 431.035 21.1669 430.687 20.8544C430.341 20.5395 430.168 20.1217 430.168 19.6009C430.168 19.1723 430.284 18.7971 430.516 18.4751C430.751 18.1532 431.069 17.9034 431.471 17.7259C431.874 17.5459 432.33 17.456 432.839 17.456C433.355 17.456 433.807 17.5459 434.195 17.7259C434.586 17.9034 434.892 18.1508 435.115 18.468C435.337 18.7829 435.452 19.1451 435.459 19.5547H434.192ZM437.962 21.6321V24.8281H436.677V17.5554H437.934V20.3004H437.998C438.125 19.9927 438.323 19.75 438.591 19.5724C438.861 19.3925 439.204 19.3026 439.62 19.3026C439.999 19.3026 440.33 19.3819 440.611 19.5405C440.893 19.6991 441.111 19.9311 441.265 20.2365C441.421 20.5419 441.499 20.9148 441.499 21.3551V24.8281H440.214V21.554C440.214 21.187 440.119 20.9018 439.929 20.6982C439.742 20.4922 439.48 20.3892 439.141 20.3892C438.914 20.3892 438.71 20.4389 438.53 20.5384C438.353 20.6354 438.213 20.7763 438.111 20.9609C438.012 21.1456 437.962 21.3693 437.962 21.6321ZM444.379 24.9382C444.033 24.9382 443.722 24.8767 443.445 24.7536C443.17 24.6281 442.953 24.4434 442.792 24.1996C442.633 23.9557 442.554 23.6551 442.554 23.2976C442.554 22.9898 442.611 22.7353 442.724 22.5341C442.838 22.3329 442.993 22.1719 443.189 22.0511C443.386 21.9304 443.607 21.8393 443.853 21.7777C444.102 21.7138 444.359 21.6676 444.624 21.6392C444.944 21.6061 445.203 21.5765 445.402 21.5504C445.601 21.522 445.745 21.4794 445.835 21.4226C445.927 21.3634 445.973 21.2723 445.973 21.1491V21.1278C445.973 20.8603 445.894 20.6532 445.736 20.5064C445.577 20.3596 445.348 20.2862 445.05 20.2862C444.735 20.2862 444.486 20.3549 444.301 20.4922C444.119 20.6295 443.995 20.7917 443.932 20.9787L442.731 20.8082C442.826 20.4768 442.982 20.1998 443.2 19.9773C443.418 19.7524 443.684 19.5843 443.999 19.473C444.314 19.3594 444.662 19.3026 445.043 19.3026C445.306 19.3026 445.567 19.3333 445.828 19.3949C446.088 19.4564 446.326 19.5582 446.542 19.7003C446.757 19.84 446.93 20.0305 447.06 20.272C447.193 20.5135 447.259 20.8153 447.259 21.1776V24.8281H446.023V24.0788H445.981C445.902 24.2304 445.792 24.3724 445.65 24.505C445.511 24.6352 445.334 24.7405 445.121 24.821C444.91 24.8991 444.663 24.9382 444.379 24.9382ZM444.713 23.9936C444.971 23.9936 445.195 23.9427 445.384 23.8409C445.573 23.7367 445.719 23.5994 445.821 23.429C445.925 23.2585 445.977 23.0727 445.977 22.8714V22.2287C445.937 22.2618 445.868 22.2926 445.771 22.321C445.676 22.3494 445.57 22.3743 445.451 22.3956C445.333 22.4169 445.216 22.4358 445.1 22.4524C444.984 22.469 444.883 22.4832 444.798 22.495C444.606 22.5211 444.435 22.5637 444.283 22.6229C444.132 22.6821 444.012 22.7649 443.924 22.8714C443.837 22.9756 443.793 23.1106 443.793 23.2763C443.793 23.513 443.879 23.6918 444.052 23.8125C444.225 23.9332 444.445 23.9936 444.713 23.9936ZM448.552 24.8281V19.3736H449.798V20.2827H449.855C449.954 19.9678 450.125 19.7251 450.366 19.5547C450.61 19.3819 450.888 19.2955 451.201 19.2955C451.272 19.2955 451.351 19.299 451.439 19.3061C451.529 19.3108 451.603 19.3191 451.662 19.331V20.5135C451.608 20.4946 451.522 20.478 451.403 20.4638C451.287 20.4472 451.175 20.4389 451.066 20.4389C450.831 20.4389 450.621 20.4898 450.434 20.5916C450.249 20.6911 450.103 20.8295 449.997 21.0071C449.89 21.1847 449.837 21.3894 449.837 21.6214V24.8281H448.552ZM454.707 24.9347C454.16 24.9347 453.687 24.821 453.29 24.5938C452.894 24.3641 452.59 24.0398 452.377 23.6207C452.164 23.1993 452.057 22.7034 452.057 22.1328C452.057 21.5717 452.164 21.0793 452.377 20.6555C452.592 20.2294 452.893 19.898 453.279 19.6612C453.665 19.4221 454.118 19.3026 454.639 19.3026C454.975 19.3026 455.293 19.357 455.591 19.4659C455.891 19.5724 456.157 19.7382 456.386 19.9631C456.618 20.188 456.801 20.4744 456.933 20.8224C457.066 21.1681 457.132 21.58 457.132 22.0582V22.4524H452.661V21.5859H455.9C455.897 21.3397 455.844 21.1207 455.74 20.929C455.636 20.7348 455.49 20.5821 455.303 20.4709C455.119 20.3596 454.903 20.304 454.657 20.304C454.394 20.304 454.163 20.3679 453.964 20.4957C453.766 20.6212 453.61 20.7869 453.499 20.9929C453.39 21.1965 453.335 21.4202 453.332 21.6641V22.4205C453.332 22.7377 453.39 23.0099 453.506 23.2372C453.622 23.4621 453.784 23.6349 453.993 23.7557C454.201 23.8741 454.445 23.9332 454.724 23.9332C454.911 23.9332 455.081 23.9072 455.232 23.8551C455.384 23.8007 455.515 23.7214 455.626 23.6172C455.738 23.513 455.822 23.384 455.878 23.2301L457.079 23.3651C457.003 23.6823 456.859 23.9593 456.645 24.196C456.435 24.4304 456.165 24.6127 455.836 24.7429C455.507 24.8707 455.13 24.9347 454.707 24.9347Z" fill="#484848"/>
<defs>
<clipPath id="clip0_224_338">
<rect width="10" height="8" fill="white" transform="translate(417 17)"/>
</clipPath>
</defs>
</svg>
