<svg width="20" height="20" viewBox="0 0 20 20" fill="none" xmlns="http://www.w3.org/2000/svg">
<g clip-path="url(#clip0_224_328)">
<path d="M13.3327 6.66699V4.33366C13.3327 3.40024 13.3327 2.93353 13.151 2.57701C12.9913 2.2634 12.7363 2.00843 12.4227 1.84865C12.0662 1.66699 11.5994 1.66699 10.666 1.66699H4.33268C3.39927 1.66699 2.93255 1.66699 2.57603 1.84865C2.26242 2.00843 2.00746 2.2634 1.84767 2.57701C1.66602 2.93353 1.66602 3.40024 1.66602 4.33366V10.667C1.66602 11.6004 1.66602 12.0672 1.84767 12.4237C2.00746 12.7372 2.26242 12.9922 2.57603 13.152C2.93255 13.3337 3.39927 13.3337 4.33268 13.3337H6.66602M9.33268 18.3337H15.666C16.5994 18.3337 17.0662 18.3337 17.4227 18.152C17.7363 17.9922 17.9913 17.7372 18.151 17.4237C18.3327 17.0672 18.3327 16.6004 18.3327 15.667V9.33366C18.3327 8.40024 18.3327 7.93353 18.151 7.57701C17.9913 7.2634 17.7363 7.00843 17.4227 6.84865C17.0662 6.66699 16.5994 6.66699 15.666 6.66699H9.33268C8.39927 6.66699 7.93255 6.66699 7.57603 6.84865C7.26242 7.00843 7.00746 7.2634 6.84767 7.57701C6.66602 7.93353 6.66602 8.40024 6.66602 9.33366V15.667C6.66602 16.6004 6.66602 17.0672 6.84767 17.4237C7.00746 17.7372 7.26242 17.9922 7.57603 18.152C7.93255 18.3337 8.39927 18.3337 9.33268 18.3337Z" stroke="#5B9BD5" stroke-width="2" stroke-linecap="round" stroke-linejoin="round"/>
</g>
<defs>
<clipPath id="clip0_224_328">
<rect width="20" height="20" fill="white"/>
</clipPath>
</defs>
</svg>
