<svg width="22" height="24" viewBox="0 0 22 24" fill="none" xmlns="http://www.w3.org/2000/svg">
<path d="M14.6667 6V5.2C14.6667 4.0799 14.6667 3.51984 14.4668 3.09202C14.2911 2.71569 14.0106 2.40973 13.6657 2.21799C13.2735 2 12.7601 2 11.7333 2H10.2667C9.23991 2 8.72652 2 8.33435 2.21799C7.98938 2.40973 7.70892 2.71569 7.53316 3.09202C7.33333 3.51984 7.33333 4.0799 7.33333 5.2V6M9.16667 11.5V16.5M12.8333 11.5V16.5M2.75 6H19.25M17.4167 6V17.2C17.4167 18.8802 17.4167 19.7202 17.1169 20.362C16.8533 20.9265 16.4326 21.3854 15.9152 21.673C15.3268 22 14.5569 22 13.0167 22H8.98333C7.44319 22 6.67311 22 6.08486 21.673C5.56741 21.3854 5.14672 20.9265 4.88307 20.362C4.58333 19.7202 4.58333 18.8802 4.58333 17.2V6" stroke="#505050" stroke-width="2" stroke-linecap="round" stroke-linejoin="round"/>
</svg>
