<svg width="10" height="10" viewBox="0 0 10 10" fill="none" xmlns="http://www.w3.org/2000/svg">
<g clip-path="url(#clip0_224_354)">
<path d="M5.00065 9.16683C7.30182 9.16683 9.16732 7.30133 9.16732 5.00016C9.16732 2.69898 7.30182 0.833496 5.00065 0.833496C2.69946 0.833496 0.833984 2.69898 0.833984 5.00016C0.833984 7.30133 2.69946 9.16683 5.00065 9.16683Z" stroke="#484848" stroke-linecap="round" stroke-linejoin="round"/>
<path d="M3.95898 3.73541C3.95898 3.53655 3.95898 3.43711 4.00054 3.3816C4.03676 3.33322 4.0922 3.30296 4.15248 3.29865C4.22165 3.29371 4.30528 3.34748 4.47257 3.45502L6.43948 4.71948C6.58465 4.81278 6.65723 4.85944 6.68228 4.91878C6.70419 4.97061 6.70419 5.02911 6.68228 5.08094C6.65723 5.14028 6.58465 5.18694 6.43948 5.28023L4.47257 6.54469C4.30528 6.65223 4.22165 6.70603 4.15248 6.70107C4.0922 6.69678 4.03676 6.66648 4.00054 6.61811C3.95898 6.56261 3.95898 6.46319 3.95898 6.26432V3.73541Z" stroke="#484848" stroke-linecap="round" stroke-linejoin="round"/>
</g>
<defs>
<clipPath id="clip0_224_354">
<rect width="10" height="10" fill="white"/>
</clipPath>
</defs>
</svg>
