<svg width="46" height="41" viewBox="0 0 46 41" fill="none" xmlns="http://www.w3.org/2000/svg">
<path d="M23.0007 37.5832C33.586 37.5832 42.1673 29.9346 42.1673 20.4998C42.1673 11.065 33.586 3.4165 23.0007 3.4165C12.4152 3.4165 3.83398 11.065 3.83398 20.4998C3.83398 29.9346 12.4152 37.5832 23.0007 37.5832Z" fill="#F5F5F5"/>
<path d="M18.209 15.3159C18.209 14.5006 18.209 14.0929 18.4002 13.8653C18.5667 13.6669 18.8218 13.5429 19.099 13.5252C19.4173 13.505 19.8019 13.7254 20.5715 14.1663L29.6193 19.3506C30.2871 19.7331 30.6209 19.9244 30.7361 20.1677C30.8369 20.3802 30.8369 20.6201 30.7361 20.8326C30.6209 21.0759 30.2871 21.2672 29.6193 21.6497L20.5715 26.834C19.8019 27.2749 19.4173 27.4954 19.099 27.4751C18.8218 27.4575 18.5667 27.3333 18.4002 27.135C18.209 26.9074 18.209 26.4998 18.209 25.6844V15.3159Z" fill="#C00000"/>
</svg>
