<svg width="30" height="30" viewBox="0 0 30 30" fill="none" xmlns="http://www.w3.org/2000/svg">
<path d="M11.25 20L15 16.25M15 16.25L18.75 20M15 16.25V25M27.5 11.25H2.5M6.875 22.5H6.5C5.09987 22.5 4.3998 22.5 3.86503 22.2275C3.39461 21.9879 3.01216 21.6054 2.77249 21.135C2.5 20.6003 2.5 19.9001 2.5 18.5V9C2.5 7.59987 2.5 6.8998 2.77249 6.36503C3.01216 5.89461 3.39463 5.51216 3.86503 5.27249C4.3998 5 5.09987 5 6.5 5H23.5C24.9001 5 25.6003 5 26.135 5.27249C26.6054 5.51217 26.9879 5.89463 27.2275 6.36503C27.5 6.8998 27.5 7.59987 27.5 9V18.5C27.5 19.9001 27.5 20.6003 27.2275 21.135C26.9879 21.6054 26.6054 21.9879 26.135 22.2275C25.6003 22.5 24.9001 22.5 23.5 22.5H23.125" stroke="black" stroke-width="2" stroke-linecap="round" stroke-linejoin="round"/>
</svg>
